<mxfile host="app.diagrams.net" agent="Mozilla/5.0 (Windows NT 10.0; Win64; x64) AppleWebKit/537.36 (KHTML, like Gecko) Chrome/130.0.0.0 Safari/537.36" version="24.8.0">
  <diagram name="Page-1" id="ff44883e-f642-bcb2-894b-16b3d25a3f0b">
    <mxGraphModel dx="2514" dy="1331" grid="1" gridSize="10" guides="1" tooltips="1" connect="1" arrows="1" fold="1" page="1" pageScale="1.5" pageWidth="1169" pageHeight="826" background="none" math="0" shadow="0">
      <root>
        <mxCell id="0" style=";html=1;" />
        <mxCell id="1" style=";html=1;" parent="0" />
        <mxCell id="f0bcc99304e6f5a-16" style="edgeStyle=none;curved=1;html=1;startSize=10;endFill=1;endSize=10;strokeWidth=2;fontSize=12;entryX=0;entryY=0.5;entryDx=0;entryDy=0;" parent="1" source="f0bcc99304e6f5a-1" target="mM5t4Utl2qjdCeu_yNsW-2" edge="1">
          <mxGeometry relative="1" as="geometry">
            <mxPoint x="590" y="645" as="targetPoint" />
          </mxGeometry>
        </mxCell>
        <mxCell id="f0bcc99304e6f5a-1" value="1" style="ellipse;whiteSpace=wrap;html=1;rounded=0;shadow=1;strokeColor=#666666;strokeWidth=4;fontSize=30;align=center;fillColor=#f5f5f5;" parent="1" vertex="1">
          <mxGeometry x="250" y="570" width="150" height="150" as="geometry" />
        </mxCell>
        <mxCell id="mM5t4Utl2qjdCeu_yNsW-2" value="3" style="ellipse;whiteSpace=wrap;html=1;rounded=0;shadow=1;strokeColor=#666666;strokeWidth=4;fontSize=30;align=center;fillColor=#f5f5f5;" vertex="1" parent="1">
          <mxGeometry x="590" y="570" width="150" height="150" as="geometry" />
        </mxCell>
        <mxCell id="mM5t4Utl2qjdCeu_yNsW-3" value="2" style="ellipse;whiteSpace=wrap;html=1;rounded=0;shadow=1;strokeColor=#666666;strokeWidth=4;fontSize=30;align=center;fillColor=#f5f5f5;" vertex="1" parent="1">
          <mxGeometry x="590" y="300" width="150" height="150" as="geometry" />
        </mxCell>
        <mxCell id="mM5t4Utl2qjdCeu_yNsW-4" style="edgeStyle=none;curved=1;html=1;startSize=10;endFill=1;endSize=10;strokeWidth=2;fontSize=12;exitX=1;exitY=0;exitDx=0;exitDy=0;entryX=0;entryY=0.5;entryDx=0;entryDy=0;" edge="1" parent="1" source="f0bcc99304e6f5a-1" target="mM5t4Utl2qjdCeu_yNsW-3">
          <mxGeometry relative="1" as="geometry">
            <mxPoint x="200" y="520" as="sourcePoint" />
            <mxPoint x="540" y="520" as="targetPoint" />
          </mxGeometry>
        </mxCell>
        <mxCell id="mM5t4Utl2qjdCeu_yNsW-5" value="4" style="ellipse;whiteSpace=wrap;html=1;rounded=0;shadow=1;strokeColor=#666666;strokeWidth=4;fontSize=30;align=center;fillColor=#f5f5f5;" vertex="1" parent="1">
          <mxGeometry x="900" y="570" width="150" height="150" as="geometry" />
        </mxCell>
        <mxCell id="mM5t4Utl2qjdCeu_yNsW-6" style="edgeStyle=none;curved=1;html=1;startSize=10;endFill=1;endSize=10;strokeWidth=2;fontSize=12;exitX=1;exitY=0.5;exitDx=0;exitDy=0;entryX=0;entryY=0;entryDx=0;entryDy=0;" edge="1" parent="1" source="mM5t4Utl2qjdCeu_yNsW-3" target="mM5t4Utl2qjdCeu_yNsW-5">
          <mxGeometry relative="1" as="geometry">
            <mxPoint x="1000" y="547" as="sourcePoint" />
            <mxPoint x="1362" y="330" as="targetPoint" />
          </mxGeometry>
        </mxCell>
        <mxCell id="mM5t4Utl2qjdCeu_yNsW-7" style="edgeStyle=none;curved=1;html=1;startSize=10;endFill=1;endSize=10;strokeWidth=2;fontSize=12;exitX=1;exitY=1;exitDx=0;exitDy=0;entryX=0;entryY=1;entryDx=0;entryDy=0;" edge="1" parent="1" source="f0bcc99304e6f5a-1" target="mM5t4Utl2qjdCeu_yNsW-5">
          <mxGeometry relative="1" as="geometry">
            <mxPoint x="390" y="1027" as="sourcePoint" />
            <mxPoint x="752" y="810" as="targetPoint" />
            <Array as="points">
              <mxPoint x="660" y="1020" />
            </Array>
          </mxGeometry>
        </mxCell>
        <mxCell id="mM5t4Utl2qjdCeu_yNsW-8" value="5" style="ellipse;whiteSpace=wrap;html=1;rounded=0;shadow=1;strokeColor=#666666;strokeWidth=4;fontSize=30;align=center;fillColor=#f5f5f5;" vertex="1" parent="1">
          <mxGeometry x="1190" y="570" width="150" height="150" as="geometry" />
        </mxCell>
        <mxCell id="mM5t4Utl2qjdCeu_yNsW-9" value="" style="endArrow=classic;html=1;rounded=0;exitX=1;exitY=0.5;exitDx=0;exitDy=0;entryX=0;entryY=0.5;entryDx=0;entryDy=0;" edge="1" parent="1" source="mM5t4Utl2qjdCeu_yNsW-5" target="mM5t4Utl2qjdCeu_yNsW-8">
          <mxGeometry width="50" height="50" relative="1" as="geometry">
            <mxPoint x="1080" y="830" as="sourcePoint" />
            <mxPoint x="1130" y="780" as="targetPoint" />
          </mxGeometry>
        </mxCell>
        <mxCell id="mM5t4Utl2qjdCeu_yNsW-10" value="6" style="ellipse;whiteSpace=wrap;html=1;rounded=0;shadow=1;strokeColor=#666666;strokeWidth=4;fontSize=30;align=center;fillColor=#f5f5f5;" vertex="1" parent="1">
          <mxGeometry x="1470" y="310" width="150" height="150" as="geometry" />
        </mxCell>
        <mxCell id="mM5t4Utl2qjdCeu_yNsW-11" value="7" style="ellipse;whiteSpace=wrap;html=1;rounded=0;shadow=1;strokeColor=#666666;strokeWidth=4;fontSize=30;align=center;fillColor=#f5f5f5;" vertex="1" parent="1">
          <mxGeometry x="1470" y="570" width="150" height="150" as="geometry" />
        </mxCell>
        <mxCell id="mM5t4Utl2qjdCeu_yNsW-12" value="9" style="ellipse;whiteSpace=wrap;html=1;rounded=0;shadow=1;strokeColor=#666666;strokeWidth=4;fontSize=30;align=center;fillColor=#f5f5f5;" vertex="1" parent="1">
          <mxGeometry x="1470" y="810" width="150" height="150" as="geometry" />
        </mxCell>
        <mxCell id="mM5t4Utl2qjdCeu_yNsW-13" value="" style="endArrow=classic;html=1;rounded=0;exitX=1;exitY=0.5;exitDx=0;exitDy=0;entryX=0;entryY=0.5;entryDx=0;entryDy=0;" edge="1" parent="1" source="mM5t4Utl2qjdCeu_yNsW-8" target="mM5t4Utl2qjdCeu_yNsW-11">
          <mxGeometry width="50" height="50" relative="1" as="geometry">
            <mxPoint x="1370" y="680" as="sourcePoint" />
            <mxPoint x="1420" y="630" as="targetPoint" />
          </mxGeometry>
        </mxCell>
        <mxCell id="mM5t4Utl2qjdCeu_yNsW-14" value="" style="endArrow=classic;html=1;rounded=0;entryX=0;entryY=1;entryDx=0;entryDy=0;exitX=1;exitY=0;exitDx=0;exitDy=0;" edge="1" parent="1" source="mM5t4Utl2qjdCeu_yNsW-8" target="mM5t4Utl2qjdCeu_yNsW-10">
          <mxGeometry width="50" height="50" relative="1" as="geometry">
            <mxPoint x="1360" y="530" as="sourcePoint" />
            <mxPoint x="1410" y="480" as="targetPoint" />
          </mxGeometry>
        </mxCell>
        <mxCell id="mM5t4Utl2qjdCeu_yNsW-15" value="" style="endArrow=classic;html=1;rounded=0;exitX=1;exitY=1;exitDx=0;exitDy=0;entryX=0;entryY=0;entryDx=0;entryDy=0;" edge="1" parent="1" source="mM5t4Utl2qjdCeu_yNsW-8" target="mM5t4Utl2qjdCeu_yNsW-12">
          <mxGeometry width="50" height="50" relative="1" as="geometry">
            <mxPoint x="1330" y="880" as="sourcePoint" />
            <mxPoint x="1380" y="830" as="targetPoint" />
          </mxGeometry>
        </mxCell>
        <mxCell id="mM5t4Utl2qjdCeu_yNsW-16" value="8" style="ellipse;whiteSpace=wrap;html=1;rounded=0;shadow=1;strokeColor=#666666;strokeWidth=4;fontSize=30;align=center;fillColor=#f5f5f5;" vertex="1" parent="1">
          <mxGeometry x="1750" y="570" width="150" height="150" as="geometry" />
        </mxCell>
        <mxCell id="mM5t4Utl2qjdCeu_yNsW-17" value="" style="endArrow=classic;html=1;rounded=0;exitX=1;exitY=0.5;exitDx=0;exitDy=0;entryX=0;entryY=0.5;entryDx=0;entryDy=0;" edge="1" parent="1" source="mM5t4Utl2qjdCeu_yNsW-11" target="mM5t4Utl2qjdCeu_yNsW-16">
          <mxGeometry width="50" height="50" relative="1" as="geometry">
            <mxPoint x="1660" y="660" as="sourcePoint" />
            <mxPoint x="1710" y="610" as="targetPoint" />
          </mxGeometry>
        </mxCell>
        <mxCell id="mM5t4Utl2qjdCeu_yNsW-18" value="10" style="ellipse;whiteSpace=wrap;html=1;rounded=0;shadow=1;strokeColor=#666666;strokeWidth=4;fontSize=30;align=center;fillColor=#f5f5f5;" vertex="1" parent="1">
          <mxGeometry x="2030" y="570" width="150" height="150" as="geometry" />
        </mxCell>
        <mxCell id="mM5t4Utl2qjdCeu_yNsW-19" value="" style="endArrow=classic;html=1;rounded=0;exitX=1;exitY=0.5;exitDx=0;exitDy=0;entryX=0;entryY=0.5;entryDx=0;entryDy=0;" edge="1" parent="1" source="mM5t4Utl2qjdCeu_yNsW-16" target="mM5t4Utl2qjdCeu_yNsW-18">
          <mxGeometry width="50" height="50" relative="1" as="geometry">
            <mxPoint x="1960" y="680" as="sourcePoint" />
            <mxPoint x="2010" y="630" as="targetPoint" />
          </mxGeometry>
        </mxCell>
        <mxCell id="mM5t4Utl2qjdCeu_yNsW-20" value="11" style="ellipse;whiteSpace=wrap;html=1;rounded=0;shadow=1;strokeColor=#666666;strokeWidth=4;fontSize=30;align=center;fillColor=#f5f5f5;" vertex="1" parent="1">
          <mxGeometry x="2340" y="570" width="150" height="150" as="geometry" />
        </mxCell>
        <mxCell id="mM5t4Utl2qjdCeu_yNsW-21" value="" style="endArrow=classic;html=1;rounded=0;exitX=1;exitY=0.5;exitDx=0;exitDy=0;entryX=0;entryY=0.5;entryDx=0;entryDy=0;" edge="1" parent="1" source="mM5t4Utl2qjdCeu_yNsW-18" target="mM5t4Utl2qjdCeu_yNsW-20">
          <mxGeometry width="50" height="50" relative="1" as="geometry">
            <mxPoint x="2230" y="660" as="sourcePoint" />
            <mxPoint x="2280" y="610" as="targetPoint" />
          </mxGeometry>
        </mxCell>
        <mxCell id="mM5t4Utl2qjdCeu_yNsW-22" value="12" style="ellipse;whiteSpace=wrap;html=1;rounded=0;shadow=1;strokeColor=#666666;strokeWidth=4;fontSize=30;align=center;fillColor=#f5f5f5;" vertex="1" parent="1">
          <mxGeometry x="2640" y="570" width="150" height="150" as="geometry" />
        </mxCell>
        <mxCell id="mM5t4Utl2qjdCeu_yNsW-23" value="" style="endArrow=classic;html=1;rounded=0;exitX=1;exitY=0.5;exitDx=0;exitDy=0;entryX=0;entryY=0.5;entryDx=0;entryDy=0;" edge="1" parent="1" source="mM5t4Utl2qjdCeu_yNsW-20" target="mM5t4Utl2qjdCeu_yNsW-22">
          <mxGeometry width="50" height="50" relative="1" as="geometry">
            <mxPoint x="2530" y="730" as="sourcePoint" />
            <mxPoint x="2580" y="680" as="targetPoint" />
          </mxGeometry>
        </mxCell>
        <mxCell id="mM5t4Utl2qjdCeu_yNsW-24" value="14" style="ellipse;whiteSpace=wrap;html=1;rounded=0;shadow=1;strokeColor=#666666;strokeWidth=4;fontSize=30;align=center;fillColor=#f5f5f5;" vertex="1" parent="1">
          <mxGeometry x="2880" y="420" width="150" height="150" as="geometry" />
        </mxCell>
        <mxCell id="mM5t4Utl2qjdCeu_yNsW-25" value="13" style="ellipse;whiteSpace=wrap;html=1;rounded=0;shadow=1;strokeColor=#666666;strokeWidth=4;fontSize=30;align=center;fillColor=#f5f5f5;" vertex="1" parent="1">
          <mxGeometry x="2880" y="720" width="150" height="150" as="geometry" />
        </mxCell>
        <mxCell id="mM5t4Utl2qjdCeu_yNsW-26" value="" style="endArrow=classic;html=1;rounded=0;entryX=0;entryY=0.5;entryDx=0;entryDy=0;exitX=1;exitY=0;exitDx=0;exitDy=0;" edge="1" parent="1" source="mM5t4Utl2qjdCeu_yNsW-22" target="mM5t4Utl2qjdCeu_yNsW-24">
          <mxGeometry width="50" height="50" relative="1" as="geometry">
            <mxPoint x="2730" y="550" as="sourcePoint" />
            <mxPoint x="2780" y="500" as="targetPoint" />
          </mxGeometry>
        </mxCell>
        <mxCell id="mM5t4Utl2qjdCeu_yNsW-27" value="" style="endArrow=classic;html=1;rounded=0;exitX=1;exitY=1;exitDx=0;exitDy=0;entryX=0;entryY=0.5;entryDx=0;entryDy=0;" edge="1" parent="1" source="mM5t4Utl2qjdCeu_yNsW-22" target="mM5t4Utl2qjdCeu_yNsW-25">
          <mxGeometry width="50" height="50" relative="1" as="geometry">
            <mxPoint x="2800" y="810" as="sourcePoint" />
            <mxPoint x="2850" y="760" as="targetPoint" />
          </mxGeometry>
        </mxCell>
        <mxCell id="mM5t4Utl2qjdCeu_yNsW-28" value="15" style="ellipse;whiteSpace=wrap;html=1;rounded=0;shadow=1;strokeColor=#666666;strokeWidth=4;fontSize=30;align=center;fillColor=#f5f5f5;" vertex="1" parent="1">
          <mxGeometry x="3140" y="570" width="150" height="150" as="geometry" />
        </mxCell>
        <mxCell id="mM5t4Utl2qjdCeu_yNsW-29" value="" style="endArrow=classic;html=1;rounded=0;exitX=1;exitY=0.5;exitDx=0;exitDy=0;entryX=0;entryY=0;entryDx=0;entryDy=0;" edge="1" parent="1" source="mM5t4Utl2qjdCeu_yNsW-24" target="mM5t4Utl2qjdCeu_yNsW-28">
          <mxGeometry width="50" height="50" relative="1" as="geometry">
            <mxPoint x="3110" y="520" as="sourcePoint" />
            <mxPoint x="3160" y="470" as="targetPoint" />
          </mxGeometry>
        </mxCell>
        <mxCell id="mM5t4Utl2qjdCeu_yNsW-30" value="" style="endArrow=classic;html=1;rounded=0;entryX=0;entryY=1;entryDx=0;entryDy=0;exitX=1;exitY=0.5;exitDx=0;exitDy=0;" edge="1" parent="1" source="mM5t4Utl2qjdCeu_yNsW-25" target="mM5t4Utl2qjdCeu_yNsW-28">
          <mxGeometry width="50" height="50" relative="1" as="geometry">
            <mxPoint x="3070" y="830" as="sourcePoint" />
            <mxPoint x="3120" y="780" as="targetPoint" />
          </mxGeometry>
        </mxCell>
        <mxCell id="mM5t4Utl2qjdCeu_yNsW-31" value="16" style="ellipse;whiteSpace=wrap;html=1;rounded=0;shadow=1;strokeColor=#666666;strokeWidth=4;fontSize=30;align=center;fillColor=#f5f5f5;" vertex="1" parent="1">
          <mxGeometry x="3420" y="570" width="150" height="150" as="geometry" />
        </mxCell>
        <mxCell id="mM5t4Utl2qjdCeu_yNsW-32" value="" style="endArrow=classic;html=1;rounded=0;exitX=1;exitY=0.5;exitDx=0;exitDy=0;entryX=0;entryY=0.5;entryDx=0;entryDy=0;" edge="1" parent="1" source="mM5t4Utl2qjdCeu_yNsW-28" target="mM5t4Utl2qjdCeu_yNsW-31">
          <mxGeometry width="50" height="50" relative="1" as="geometry">
            <mxPoint x="3340" y="720" as="sourcePoint" />
            <mxPoint x="3390" y="670" as="targetPoint" />
          </mxGeometry>
        </mxCell>
      </root>
    </mxGraphModel>
  </diagram>
</mxfile>
